<svg width="327" height="59" fill="none" xmlns="http://www.w3.org/2000/svg">
<path d="M27.598 5.854c.599-1.843 3.205-1.843 3.804 0l4.272 13.148a2 2 0 0 0 1.902 1.382h13.825c1.937 0 2.743 2.48 1.175 3.618l-11.184 8.126a2 2 0 0 0-.727 2.236l4.273 13.148c.598 1.843-1.51 3.375-3.078 2.236l-11.184-8.126a2 2 0 0 0-2.352 0L17.14 49.748c-1.567 1.139-3.676-.393-3.078-2.236l4.272-13.148a2 2 0 0 0-.726-2.236L6.424 24.002c-1.568-1.139-.762-3.618 1.175-3.618h13.825a2 2 0 0 0 1.902-1.382l4.272-13.148zM94.598 5.854c.599-1.843 3.205-1.843 3.804 0l4.272 13.148a2 2 0 0 0 1.902 1.382h13.825c1.937 0 2.743 2.48 1.175 3.618l-11.184 8.126a2 2 0 0 0-.726 2.236l4.272 13.148c.598 1.843-1.511 3.375-3.078 2.236l-11.184-8.126a2 2 0 0 0-2.352 0L84.14 49.748c-1.567 1.139-3.676-.393-3.078-2.236l4.273-13.148a2 2 0 0 0-.727-2.236l-11.184-8.126c-1.568-1.139-.762-3.618 1.175-3.618h13.825a2 2 0 0 0 1.902-1.382l4.272-13.148zM161.598 5.854c.599-1.843 3.205-1.843 3.804 0l4.272 13.148a2 2 0 0 0 1.902 1.382h13.825c1.937 0 2.743 2.48 1.175 3.618l-11.184 8.126a2 2 0 0 0-.726 2.236l4.272 13.148c.598 1.843-1.511 3.375-3.078 2.236l-11.184-8.126a2.001 2.001 0 0 0-2.352 0l-11.184 8.126c-1.567 1.139-3.676-.393-3.078-2.236l4.272-13.148a2 2 0 0 0-.726-2.236l-11.184-8.126c-1.568-1.139-.762-3.618 1.175-3.618h13.825a2 2 0 0 0 1.902-1.382l4.272-13.148z" fill="#FFD336"/>
<path d="M228.598 5.854c.599-1.843 3.205-1.843 3.804 0l4.272 13.148a2 2 0 0 0 1.902 1.382h13.825c1.937 0 2.743 2.48 1.175 3.618l-11.184 8.126a2 2 0 0 0-.726 2.236l4.272 13.148c.598 1.843-1.511 3.375-3.078 2.236l-11.184-8.126a2.001 2.001 0 0 0-2.352 0l-11.184 8.126c-1.567 1.139-3.676-.393-3.078-2.236l4.272-13.148a2 2 0 0 0-.726-2.236l-11.184-8.126c-1.568-1.139-.762-3.618 1.175-3.618h13.825a2 2 0 0 0 1.902-1.382l4.272-13.148zM295.598 5.854c.599-1.843 3.205-1.843 3.804 0l4.272 13.148a2 2 0 0 0 1.902 1.382h13.825c1.937 0 2.743 2.48 1.175 3.618l-11.184 8.126a2 2 0 0 0-.726 2.236l4.272 13.148c.598 1.843-1.511 3.375-3.078 2.236l-11.184-8.126a2.001 2.001 0 0 0-2.352 0l-11.184 8.126c-1.567 1.139-3.676-.393-3.078-2.236l4.272-13.148a2 2 0 0 0-.726-2.236l-11.184-8.126c-1.568-1.139-.762-3.618 1.175-3.618h13.825a2 2 0 0 0 1.902-1.382l4.272-13.148z" fill="#C4C4C4"/>
</svg>